<?xml version="1.0" encoding="utf-8"?>
<!-- Generator: Adobe Illustrator 20.1.0, SVG Export Plug-In . SVG Version: 6.00 Build 0)  -->
<svg version="1.1" id="Layer_1" xmlns="http://www.w3.org/2000/svg" xmlns:xlink="http://www.w3.org/1999/xlink" x="0px" y="0px"
	 viewBox="0 0 38 29" style="enable-background:new 0 0 38 29;" xml:space="preserve">
<style type="text/css">
	.st0{fill-rule:evenodd;clip-rule:evenodd;fill:#E93335;}
	.st1{opacity:0.4;fill-rule:evenodd;clip-rule:evenodd;fill:#FFFFFF;}
	.st2{opacity:0.6;fill-rule:evenodd;clip-rule:evenodd;fill:#FFFFFF;}
	.st3{fill-rule:evenodd;clip-rule:evenodd;fill:#FFFFFF;}
</style>
<path class="st0" d="M26,0H12C5.4,0,0,5.4,0,12c0,6.1,4.5,11.1,10.4,11.9c0,1.8-0.8,3.8-3.4,5.1c0,0,6.8,0.5,9.2-5H26
	c6.6,0,12-5.4,12-12C38,5.4,32.6,0,26,0z"/>
<path class="st1" d="M28,9c1.7,0,3,1.3,3,3c0,1.7-1.3,3-3,3c-1.7,0-3-1.3-3-3C25,10.3,26.3,9,28,9z"/>
<path class="st2" d="M19,9c1.7,0,3,1.3,3,3c0,1.7-1.3,3-3,3s-3-1.3-3-3C16,10.3,17.3,9,19,9z"/>
<path class="st3" d="M10,9c1.7,0,3,1.3,3,3c0,1.7-1.3,3-3,3s-3-1.3-3-3C7,10.3,8.3,9,10,9z"/>
</svg>
