<?xml version="1.0" encoding="utf-8"?>
<!-- Generator: Adobe Illustrator 20.1.0, SVG Export Plug-In . SVG Version: 6.00 Build 0)  -->
<svg version="1.1" id="Vrstva_1" xmlns="http://www.w3.org/2000/svg" xmlns:xlink="http://www.w3.org/1999/xlink" x="0px" y="0px"
	 viewBox="0 0 100 39.6" style="enable-background:new 0 0 100 39.6;" xml:space="preserve">
<style type="text/css">
	.st0{fill:#101211;}
	.st1{fill:#BC221D;}
	.st2{fill:#31902D;}
</style>
<path class="st0" d="M19.1,11c0.3-0.8,0.4-0.9,0.6-0.9c0.2,0,0.3,0.3,0.6,0.8c0.4,1,4.2,10.4,5.7,13.9c0.9,2.1,1.5,2.3,2,2.5
	c0.4,0.1,0.7,0.1,0.9,0.1c0.1,0,0.3,0.1,0.3,0.2s-0.3,0.2-0.5,0.2c-0.4,0-2.1,0-3.8-0.1c-0.5,0-0.8,0-0.8-0.2c0-0.1,0.1-0.1,0.2-0.2
	c0.1-0.1,0.4-0.2,0.2-0.6l-2.1-5.3c-0.1-0.1-0.1-0.1-0.2-0.1h-5.5c-0.1,0-0.2,0.1-0.2,0.2L15,25.4c-0.2,0.6-0.4,1.1-0.4,1.5
	c0,0.5,0.4,0.6,0.8,0.6h0.2c0.2,0,0.2,0.1,0.2,0.2c0,0.1-0.1,0.2-0.4,0.2c-0.6,0-1.9-0.1-2.1-0.1c-0.2,0-1.4,0.1-2.4,0.1
	c-0.3,0-0.5-0.1-0.5-0.2c0-0.1,0.1-0.2,0.2-0.2c0.2,0,0.5,0,0.7-0.1c1.1-0.1,1.5-0.9,2-2.1L19.1,11z M21.8,20.6
	c0.1,0,0.1-0.1,0.1-0.2l-2.3-6.3c-0.1-0.4-0.3-0.4-0.4,0l-2.2,6.3c0,0.1,0,0.2,0.1,0.2H21.8z"/>
<path class="st0" d="M35,21.3c0,3.4,0.1,4.8,0.5,5.2c0.4,0.4,1.3,0.5,3.2,0.5c1.2,0,2.3,0,2.9-0.7c0.3-0.4,0.5-0.8,0.6-1.3
	c0-0.2,0.1-0.3,0.2-0.3c0.1,0,0.2,0.1,0.2,0.3c0,0.2-0.2,1.6-0.4,2.3C42,27.9,41.9,28,40.7,28c-1.7,0-3,0-4.1-0.1
	c-1.1,0-1.9-0.1-2.6-0.1c-0.1,0-0.5,0-1,0c-0.5,0-1,0.1-1.4,0.1c-0.2,0-0.4-0.1-0.4-0.2c0-0.1,0.1-0.2,0.2-0.2
	c0.2,0,0.5-0.1,0.7-0.1c0.5-0.1,0.5-0.5,0.6-1.2c0.1-0.9,0.1-2.8,0.1-5v-4c0-3.6,0-4.2-0.1-4.9c-0.1-0.8-0.2-1.2-1-1.3
	c-0.2,0-0.6-0.1-0.8-0.1c-0.1,0-0.2-0.1-0.2-0.2c0-0.1,0.1-0.2,0.4-0.2c1.1,0,2.6,0.1,2.7,0.1c0.1,0,1.9-0.1,2.6-0.1
	c0.2,0,0.4,0.1,0.4,0.2c0,0.1-0.1,0.2-0.2,0.2c-0.2,0-0.5,0-0.8,0.1c-0.7,0.1-0.8,0.5-0.9,1.3c0,0.7,0,1.4,0,4.9V21.3z"/>
<path class="st0" d="M0.4,27.6C0,27.4,0,27.4,0,26.7c0-1.1,0.1-2.1,0.1-2.4c0-0.2,0.1-0.4,0.2-0.4c0.1,0,0.2,0.1,0.2,0.3
	c0,0.2,0,0.5,0.1,0.8c0.4,1.7,2.2,2.3,3.8,2.3c2.3,0,3.6-1.3,3.6-3c0-1.6-0.9-2.4-3-4l-1.1-0.8c-2.6-1.9-3.4-3.3-3.4-4.9
	c0-2.7,2.1-4.3,5.3-4.3c0.9,0,1.9,0.1,2.5,0.3c0.5,0.1,0.6,0.1,0.8,0.1c0.2,0,0.2,0,0.2,0.2c0,0.1-0.1,0.9-0.1,2.4
	c0,0.4,0,0.5-0.2,0.5c-0.2,0-0.2-0.1-0.2-0.3c0-0.3-0.2-0.9-0.4-1.1c-0.2-0.3-0.9-1.1-3.1-1.1c-1.7,0-3.2,0.9-3.2,2.5
	c0,1.5,0.7,2.3,3.1,3.9L5.9,18c2.9,2,3.9,3.6,3.9,5.5c0,1.3-0.5,2.8-2.2,3.9c-1,0.6-2.5,0.8-3.8,0.8C2.7,28.2,1.3,28.1,0.4,27.6z"/>
<path class="st0" d="M61.4,21.3c0,2.2,0,4,0.1,5c0.1,0.7,0.2,1.1,0.9,1.2c0.4,0.1,0.9,0.1,1.1,0.1c0.1,0,0.2,0.1,0.2,0.2
	c0,0.1-0.1,0.2-0.4,0.2c-1.3,0-2.9-0.1-3-0.1c-0.1,0-1.6,0.1-2.3,0.1c-0.2,0-0.4-0.1-0.4-0.2c0-0.1,0.1-0.2,0.2-0.2
	c0.2,0,0.5-0.1,0.7-0.1c0.5-0.1,0.5-0.5,0.6-1.2c0.1-0.9,0.1-2.8,0.1-5v-4c0-3.6,0-4.2-0.1-4.9c-0.1-0.8-0.2-1.1-0.8-1.2
	c-0.3-0.1-0.6-0.1-0.7-0.1c-0.1,0-0.2-0.1-0.2-0.2c0-0.1,0.1-0.2,0.4-0.2c0.8,0,2.3,0.1,2.4,0.1c0.1,0,1.6-0.1,2.4-0.1
	c0.3,0,0.4,0.1,0.4,0.2c0,0.1-0.1,0.2-0.2,0.2c-0.2,0-0.3,0-0.6,0.1c-0.6,0.1-0.8,0.5-0.8,1.3c0,0.7,0,1.4,0,4.9V21.3z"/>
<path class="st0" d="M75.9,21.3c0,2.2,0,4,0.1,5c0.1,0.7,0.2,1.1,0.9,1.2c0.3,0.1,0.9,0.1,1.1,0.1c0.2,0,0.2,0.1,0.2,0.2
	c0,0.1-0.1,0.2-0.4,0.2c-1.3,0-2.8-0.1-2.9-0.1c-0.1,0-1.8,0.1-2.5,0.1c-0.3,0-0.4-0.1-0.4-0.2c0-0.1,0.1-0.2,0.2-0.2
	c0.2,0,0.5-0.1,0.7-0.1c0.5-0.1,0.6-0.6,0.7-1.2c0.1-0.9,0.1-2.8,0.1-5v-9.6l-3.4,0.1c-1.5,0-2.1,0.2-2.4,0.7
	c-0.3,0.4-0.3,0.6-0.4,0.7c-0.1,0.2-0.1,0.2-0.2,0.2c-0.1,0-0.2-0.1-0.2-0.2c0-0.2,0.5-2.3,0.5-2.5c0.1-0.1,0.2-0.4,0.2-0.4
	c0.2,0,0.4,0.2,1.1,0.3c0.7,0.1,1.6,0.1,1.9,0.1h9c0.8,0,1.3-0.1,1.7-0.1c0.4-0.1,0.6-0.1,0.7-0.1c0.1,0,0.1,0.1,0.1,0.3
	c0,0.7-0.1,2.3-0.1,2.6c0,0.2-0.1,0.3-0.2,0.3c-0.1,0-0.2-0.1-0.2-0.4l0-0.2c-0.1-0.7-0.6-1.2-2.9-1.3l-3-0.1V21.3z"/>
<path class="st0" d="M89.9,11c0.3-0.8,0.4-0.9,0.6-0.9c0.2,0,0.3,0.3,0.6,0.8c0.4,1,4.2,10.4,5.7,13.9c0.9,2.1,1.5,2.3,2,2.5
	c0.4,0.1,0.7,0.1,0.9,0.1c0.1,0,0.3,0.1,0.3,0.2s-0.3,0.2-0.5,0.2c-0.4,0-2.1,0-3.8-0.1c-0.5,0-0.8,0-0.8-0.2c0-0.1,0.1-0.1,0.2-0.2
	c0.1-0.1,0.4-0.2,0.2-0.6l-2.1-5.3c-0.1-0.1-0.1-0.1-0.2-0.1h-5.5c-0.1,0-0.2,0.1-0.2,0.2l-1.3,3.7c-0.2,0.6-0.4,1.1-0.4,1.5
	c0,0.5,0.4,0.6,0.8,0.6h0.2c0.2,0,0.2,0.1,0.2,0.2c0,0.1-0.1,0.2-0.4,0.2c-0.6,0-1.9-0.1-2.1-0.1c-0.2,0-1.4,0.1-2.4,0.1
	c-0.3,0-0.5-0.1-0.5-0.2c0-0.1,0.1-0.2,0.2-0.2c0.2,0,0.5,0,0.7-0.1c1.1-0.1,1.5-0.9,2-2.1L89.9,11z M92.6,20.6
	c0.1,0,0.1-0.1,0.1-0.2l-2.3-6.3c-0.1-0.4-0.3-0.4-0.4,0l-2.2,6.3c0,0.1,0,0.2,0.1,0.2H92.6z"/>
<g>
	<path class="st1" d="M44.4,4.3c0-0.2,0-0.5,0-0.7c0,0,0,0-0.1,0c-0.6,0.2-1.1,0.6-1.6,1c-0.2,0.2-0.4,0.4-0.6,0.7
		c-2.2,2.3-1.8,5.8-0.4,8.5c0.2,0.2,0.3,0.5,0.5,0.7c0.8,1.1,1.6,2.3,2.4,3.4c0.3,0.5,0.7,0.9,1,1.4c3.2,4,6.4,9.8,4,14.7
		c-0.2,0.3-0.3,0.7-0.5,1c-1.4,2.1-3.7,2.7-5.9,3.5c-0.2,0.1-0.4,0.1-0.5,0.2c-1.1,0.6-1.9,0.1-2.3,1c1.2-0.7,1.4,0,2.8,0
		c0.2,0,0.4,0,0.6,0c3.2-0.2,6.2-1.1,8.4-3.5c0.2-0.2,0.4-0.4,0.5-0.6c0.8-1.1,1.3-2.1,1.6-3c0.6-1.9,0.8-3.6,0.4-5.7
		c-0.2-1-0.6-2.1-1.2-3.3c-0.2-0.4-0.3-0.7-0.5-1.1c-0.2-0.4-0.4-0.7-0.6-1.1c-0.4-0.8-0.9-1.3-1.4-2.1c-0.2-0.3-0.5-0.7-0.8-1
		c-1.6-1.9-3.2-4-4.3-6.3c-0.2-0.4-0.4-0.9-0.6-1.4c-0.2-0.9-0.3-1.8,0-2.6c0.2-0.6,0.6-1.1,1.2-1.6C45.9,6.2,44.8,4.6,44.4,4.3z"/>
	<path class="st2" d="M55.6,0c-1.9,0.2-3.5,0.9-5.1,1.6C50.2,1.8,50,1.9,49.7,2c-1.3,0.7-2.9,1-4.3,1.3c-0.3,0.1-0.7,0.1-1,0.2
		c0,0.2-0.2,0.7-0.2,0.9c0.4,0.4,1.7,1.7,2.5,1.7C46.8,6,47,5.9,47.2,5.8c0-0.1,0.1-0.2,0.1-0.3c0,0.1-0.1,0.2-0.1,0.3
		c0.1-0.1,0.2-0.1,0.2-0.2c0.4-0.4,0.6-0.7,0.7-1.3c0.4-0.9,1.3-1.3,2-1.9c0.3-0.2,0.6-0.4,0.9-0.5c1.6-0.8,3.4-1.1,5.1-0.1
		c0.5,0.3,1.1-0.1,1.1-0.5C57.3,0.6,56.4,0,55.6,0z"/>
</g>
<g>
	<path class="st0" d="M61.2,37.5c-0.1,0-0.1-0.1-0.1-0.2c0-0.3,0-0.5,0-0.6c0-0.1,0-0.1,0-0.1c0,0,0,0,0,0.1c0,0,0,0.1,0,0.2
		c0.1,0.4,0.4,0.6,0.8,0.6c0.5,0,0.8-0.4,0.8-0.7c0-0.4-0.2-0.6-0.6-1L62,35.5c-0.6-0.5-0.7-0.8-0.7-1.2c0-0.6,0.4-1,1.1-1
		c0.2,0,0.4,0,0.5,0.1c0.1,0,0.1,0,0.2,0c0,0,0.1,0,0.1,0c0,0,0,0.2,0,0.6c0,0.1,0,0.1,0,0.1c0,0,0,0,0-0.1c0-0.1,0-0.2-0.1-0.3
		c0-0.1-0.2-0.3-0.7-0.3c-0.4,0-0.7,0.2-0.7,0.6c0,0.3,0.1,0.5,0.7,0.9l0.2,0.1c0.6,0.5,0.8,0.8,0.8,1.3c0,0.2-0.1,0.6-0.5,0.9
		c-0.2,0.2-0.5,0.2-0.8,0.2C61.7,37.7,61.5,37.6,61.2,37.5z"/>
	<path class="st0" d="M66.8,33.4c1.2,0,2.2,0.8,2.2,2.1c0,1.2-0.9,2.2-2.2,2.2c-1.5,0-2.1-1.2-2.1-2.2
		C64.6,34.6,65.3,33.4,66.8,33.4z M66.9,37.5c0.5,0,1.5-0.3,1.5-1.9c0-1.3-0.8-2-1.7-2c-0.9,0-1.6,0.6-1.6,1.8
		C65.2,36.6,65.9,37.5,66.9,37.5z"/>
	<path class="st0" d="M70.7,35c0-0.9,0-1,0-1.2c0-0.2-0.1-0.3-0.2-0.3c0,0-0.1,0-0.2,0c0,0,0,0,0,0c0,0,0,0,0.1,0c0.1,0,0.3,0,0.4,0
		l0.2,0c0.1,0,1.2,0,1.3,0c0.1,0,0.2,0,0.2,0c0,0,0.1,0,0.1,0c0,0,0,0,0,0c0,0,0,0.1,0,0.3c0,0.1,0,0.3,0,0.4c0,0,0,0.1,0,0.1
		c0,0,0,0,0-0.1c0,0,0-0.1,0-0.2c0-0.1-0.2-0.2-0.4-0.2l-0.8,0c0,0,0,0,0,0.1v1.5c0,0,0,0,0,0l0.7,0c0.1,0,0.2,0,0.2,0
		c0.1,0,0.2,0,0.3-0.1c0,0,0-0.1,0.1-0.1c0,0,0,0,0,0c0,0,0,0.1,0,0.3c0,0.1,0,0.3,0,0.4c0,0,0,0.1,0,0.1c0,0,0,0,0,0
		c0-0.1,0-0.1,0-0.2c0-0.1-0.1-0.2-0.3-0.2c-0.1,0-0.7,0-0.8,0c0,0,0,0,0,0V36c0,0.5,0,1,0,1.2c0,0.2,0,0.3,0.2,0.3
		c0.1,0,0.2,0,0.2,0c0,0,0,0,0,0c0,0,0,0-0.1,0c-0.3,0-0.6,0-0.7,0c0,0-0.4,0-0.5,0c-0.1,0-0.1,0-0.1,0c0,0,0,0,0,0c0,0,0.1,0,0.2,0
		c0.1,0,0.1-0.1,0.2-0.3c0-0.2,0-0.7,0-1.2V35z"/>
	<path class="st0" d="M75.6,36c0,0.5,0,1,0,1.2c0,0.2,0,0.3,0.2,0.3c0.1,0,0.2,0,0.2,0c0,0,0,0,0,0c0,0,0,0-0.1,0
		c-0.3,0-0.6,0-0.7,0c0,0-0.4,0-0.5,0c-0.1,0-0.1,0-0.1,0c0,0,0,0,0,0c0,0,0.1,0,0.2,0c0.1,0,0.1-0.1,0.2-0.3c0-0.2,0-0.7,0-1.2
		v-2.3l-0.8,0c-0.3,0-0.5,0-0.6,0.2C73.7,34,73.7,34,73.7,34c0,0,0,0.1-0.1,0.1c0,0,0,0,0,0c0-0.1,0.1-0.5,0.1-0.6
		c0,0,0-0.1,0.1-0.1c0,0,0.1,0.1,0.2,0.1c0.2,0,0.4,0,0.4,0h2.1c0.2,0,0.3,0,0.4,0c0.1,0,0.1,0,0.2,0c0,0,0,0,0,0.1
		c0,0.2,0,0.5,0,0.6c0,0,0,0.1,0,0.1c0,0,0,0,0-0.1l0-0.1c0-0.2-0.1-0.3-0.7-0.3l-0.7,0V36z"/>
	<path class="st0" d="M82.2,36.8L82.2,36.8c0.2-0.5,0.7-2.1,0.9-2.8c0.1-0.2,0.1-0.3,0.1-0.4c0-0.1-0.1-0.2-0.3-0.2c0,0,0,0,0,0
		c0,0,0,0,0.1,0c0.3,0,0.5,0,0.6,0c0,0,0.3,0,0.4,0c0,0,0.1,0,0.1,0c0,0,0,0,0,0c0,0-0.1,0-0.2,0c-0.2,0.1-0.3,0.3-0.4,0.6
		c-0.2,0.7-0.8,2.4-1,3.1c-0.1,0.4-0.2,0.5-0.2,0.5c-0.1,0-0.1-0.1-0.2-0.3l-1.1-3h0c-0.2,0.5-0.9,2.5-1.1,3
		c-0.1,0.2-0.1,0.3-0.2,0.3c-0.1,0-0.1-0.1-0.2-0.4l-1-3.3c-0.1-0.3-0.2-0.4-0.3-0.4c-0.1,0-0.2,0-0.2,0c0,0,0,0,0,0c0,0,0,0,0.1,0
		c0.3,0,0.6,0,0.6,0c0,0,0.3,0,0.6,0c0.1,0,0.1,0,0.1,0c0,0,0,0-0.1,0c0,0-0.1,0-0.2,0c0,0-0.1,0.1-0.1,0.1s0,0.3,0.1,0.5
		c0.1,0.4,0.7,2.4,0.7,2.7h0l1.2-3.1c0.1-0.2,0.1-0.3,0.1-0.3c0,0,0.1,0.1,0.1,0.3L82.2,36.8z"/>
	<path class="st0" d="M85.9,33.6c0.1-0.2,0.1-0.2,0.1-0.2c0,0,0.1,0,0.1,0.2c0.1,0.2,0.9,2.5,1.3,3.3c0.2,0.5,0.4,0.6,0.5,0.6
		c0.1,0,0.2,0,0.2,0c0,0,0.1,0,0.1,0c0,0,0,0-0.1,0c-0.1,0-0.5,0-0.9,0c-0.1,0-0.2,0-0.2,0c0,0,0,0,0,0c0,0,0.1-0.1,0-0.1L86.6,36
		c0,0,0,0,0,0h-1.2c0,0,0,0-0.1,0L85,37c0,0.1-0.1,0.3-0.1,0.4c0,0.1,0.1,0.2,0.2,0.2h0.1c0,0,0.1,0,0.1,0c0,0,0,0-0.1,0
		c-0.1,0-0.4,0-0.4,0c-0.1,0-0.4,0-0.6,0c-0.1,0-0.1,0-0.1,0c0,0,0,0,0,0c0,0,0.1,0,0.2,0c0.3,0,0.4-0.2,0.5-0.5L85.9,33.6z
		 M86.5,35.8C86.5,35.8,86.5,35.8,86.5,35.8L86,34.3c0-0.1-0.1-0.1-0.1,0l-0.5,1.5c0,0,0,0,0,0H86.5z"/>
	<path class="st0" d="M89.5,35c0-0.9,0-1,0-1.2c0-0.2-0.1-0.3-0.2-0.3c0,0-0.1,0-0.2,0c0,0,0,0,0,0c0,0,0,0,0.1,0c0.2,0,0.6,0,0.6,0
		c0.1,0,0.5,0,0.6,0c0.3,0,0.7,0,1,0.2c0.1,0.1,0.4,0.4,0.4,0.7c0,0.4-0.2,0.8-0.7,1.3c0.5,0.6,0.8,1.1,1.1,1.4
		c0.3,0.3,0.5,0.4,0.7,0.4c0.1,0,0.2,0,0.2,0c0,0,0,0,0,0c0,0,0,0-0.1,0h-0.4c-0.3,0-0.4,0-0.6-0.1c-0.2-0.1-0.4-0.4-0.7-0.8
		c-0.2-0.3-0.5-0.7-0.6-0.8c0,0,0,0-0.1,0l-0.7,0c0,0,0,0,0,0V36c0,0.5,0,1,0,1.2c0,0.2,0,0.3,0.2,0.3c0.1,0,0.2,0,0.2,0
		c0,0,0,0,0,0c0,0,0,0-0.1,0c-0.3,0-0.6,0-0.7,0c0,0-0.4,0-0.5,0c-0.1,0-0.1,0-0.1,0c0,0,0,0,0,0c0,0,0.1,0,0.2,0
		c0.1,0,0.1-0.1,0.2-0.3c0-0.2,0-0.7,0-1.2V35z M89.9,35.5C89.9,35.5,90,35.6,89.9,35.5c0.1,0.1,0.4,0.2,0.6,0.2
		c0.1,0,0.3,0,0.4-0.1c0.2-0.1,0.3-0.4,0.3-0.8c0-0.7-0.4-1.1-0.9-1.1c-0.2,0-0.3,0-0.4,0c0,0,0,0,0,0.1V35.5z"/>
	<path class="st0" d="M94.2,35c0-0.9,0-1,0-1.2c0-0.2-0.1-0.3-0.2-0.3c0,0-0.1,0-0.2,0c0,0,0,0,0,0c0,0,0,0,0.1,0c0.1,0,0.3,0,0.4,0
		l0.2,0c0,0,1.1,0,1.3,0c0.1,0,0.2,0,0.2,0c0,0,0,0,0.1,0c0,0,0,0,0,0c0,0,0,0.1,0,0.3c0,0.1,0,0.3,0,0.4c0,0,0,0.1,0,0.1
		c0,0,0,0,0-0.1c0,0,0-0.1,0-0.2c0-0.1-0.1-0.2-0.4-0.2c-0.1,0-0.7,0-0.8,0c0,0,0,0,0,0.1v1.5c0,0,0,0.1,0,0.1c0.1,0,0.7,0,0.9,0
		c0.1,0,0.2,0,0.3-0.1c0,0,0.1-0.1,0.1-0.1c0,0,0,0,0,0c0,0,0,0.1,0,0.3c0,0.1,0,0.3,0,0.4c0,0,0,0.1,0,0.1c0,0,0,0,0,0
		c0-0.1,0-0.1,0-0.2c0-0.1-0.1-0.2-0.3-0.2c-0.1,0-0.7,0-0.8,0c0,0,0,0,0,0V36c0,0.2,0,0.8,0,0.9c0,0.4,0.1,0.4,0.6,0.4
		c0.1,0,0.4,0,0.5-0.1c0.1-0.1,0.2-0.2,0.2-0.4c0-0.1,0-0.1,0-0.1c0,0,0,0,0,0.1c0,0,0,0.4-0.1,0.5c0,0.1-0.1,0.1-0.3,0.1
		c-0.4,0-0.7,0-0.9,0c-0.2,0-0.3,0-0.4,0c0,0-0.1,0-0.2,0c-0.1,0-0.2,0-0.3,0c-0.1,0-0.1,0-0.1,0c0,0,0,0,0,0c0,0,0.1,0,0.2,0
		c0.1,0,0.1-0.1,0.2-0.3c0-0.2,0-0.7,0-1.2V35z"/>
</g>
</svg>
